<?xml version="1.0" standalone="no"?>
<!DOCTYPE svg PUBLIC "-//W3C//DTD SVG 20010904//EN"
 "http://www.w3.org/TR/2001/REC-SVG-20010904/DTD/svg10.dtd">
<svg version="1.0" xmlns="http://www.w3.org/2000/svg"
 width="1312.000000pt" height="1312.000000pt" viewBox="0 0 1312.000000 1312.000000"
 preserveAspectRatio="xMidYMid meet">
<metadata>
Created by potrace 1.14, written by Peter Selinger 2001-2017
</metadata>
<g transform="translate(0.000000,1312.000000) scale(0.100000,-0.100000)"
fill="#000000" stroke="none">
<path d="M5825 10191 c-3 -6 -3 -11 2 -11 4 0 -5 -7 -21 -15 -15 -8 -32 -12
-37 -9 -5 3 -12 -1 -15 -9 -2 -7 -11 -14 -19 -14 -8 0 -12 4 -10 8 3 4 -6 6
-19 5 -18 -1 -22 -4 -14 -14 8 -9 7 -11 -6 -6 -9 3 -16 10 -16 15 0 5 -5 9
-11 9 -5 0 -8 -4 -4 -9 3 -5 1 -13 -5 -16 -6 -4 -10 -3 -9 2 3 20 -2 25 -16
13 -8 -7 -15 -8 -15 -3 0 5 -7 10 -15 10 -8 0 -12 -4 -9 -9 3 -4 0 -8 -5 -8
-6 0 -11 4 -11 8 0 5 -7 9 -15 9 -8 0 -12 -4 -9 -9 3 -4 0 -8 -5 -8 -6 0 -11
4 -11 10 0 5 -6 7 -14 4 -8 -3 -25 0 -38 7 -20 11 -21 10 -11 -2 10 -12 8 -15
-10 -15 -12 0 -25 4 -29 10 -4 6 -12 5 -22 -3 -13 -11 -16 -11 -16 0 0 11 -2
11 -10 -1 -8 -12 -10 -12 -10 -1 0 11 -3 11 -17 0 -13 -11 -17 -11 -21 -1 -3
10 -7 10 -20 0 -9 -7 -13 -8 -9 -2 3 6 0 11 -8 11 -8 0 -12 -4 -9 -9 3 -4 0
-8 -5 -8 -6 0 -11 5 -11 10 0 6 -5 10 -11 10 -5 0 -8 -4 -4 -9 3 -5 1 -13 -5
-16 -6 -4 -9 -1 -8 6 2 6 -7 12 -19 14 -18 1 -20 -1 -11 -12 9 -11 7 -12 -14
-4 -19 7 -25 6 -25 -5 0 -9 6 -13 15 -9 12 4 13 3 2 -10 -11 -14 -14 -13 -27
2 -8 10 -12 13 -9 6 4 -6 2 -14 -4 -18 -5 -3 -10 -2 -10 3 0 5 -7 9 -15 9 -8
0 -15 -5 -15 -10 0 -5 -8 -3 -17 4 -11 10 -14 10 -9 2 4 -7 3 -13 -3 -13 -5 0
-12 6 -15 13 -5 9 -7 9 -12 -1 -5 -10 -9 -10 -22 0 -12 10 -14 10 -8 1 4 -7 2
-13 -3 -13 -6 0 -11 4 -11 9 0 5 -7 12 -16 15 -13 5 -14 3 -6 -7 8 -10 6 -13
-11 -13 -12 0 -26 5 -30 10 -6 8 -10 7 -14 -2 -4 -10 -8 -10 -21 0 -12 10 -14
10 -8 1 4 -7 2 -13 -3 -13 -6 0 -11 6 -11 13 0 8 -4 7 -10 -3 -8 -12 -10 -12
-10 -1 0 11 -3 11 -15 1 -11 -9 -15 -9 -15 -1 0 7 -5 9 -10 6 -6 -4 -8 -12 -4
-18 3 -7 -2 -3 -12 8 -14 17 -16 17 -11 3 4 -10 2 -18 -3 -18 -6 0 -10 -5 -10
-11 0 -5 6 -7 13 -3 7 4 9 3 4 -2 -12 -12 -30 -12 -40 1 -6 7 -10 6 -14 -3 -2
-6 -10 -9 -16 -5 -16 10 -57 11 -51 1 3 -4 0 -8 -5 -8 -6 0 -11 5 -11 10 0 6
-5 10 -11 10 -5 0 -8 -4 -5 -9 5 -8 -15 -8 -34 -1 -15 6 -36 4 -47 -4 -8 -5
-13 -4 -13 2 0 6 -11 1 -24 -11 -26 -23 -27 -39 -1 -17 8 7 15 8 15 2 0 -15
-32 -24 -43 -13 -7 7 -16 7 -29 0 -12 -7 -18 -6 -18 1 0 8 -6 8 -20 0 -11 -6
-20 -7 -20 -2 0 4 -9 8 -19 8 -11 0 -17 -4 -15 -8 3 -4 0 -8 -5 -8 -6 0 -11 6
-11 13 0 9 -3 8 -9 -2 -7 -11 -9 -11 -14 0 -3 9 -10 1 -17 -19 -9 -25 -15 -30
-21 -20 -7 11 -11 10 -19 -2 -8 -12 -11 -13 -19 -1 -7 11 -9 11 -14 0 -5 -12
-6 -12 -6 0 -1 11 -4 11 -17 0 -9 -7 -18 -9 -22 -3 -10 13 -35 17 -27 4 3 -5
1 -10 -4 -10 -6 0 -11 5 -11 11 0 8 -5 8 -15 -1 -11 -9 -15 -9 -15 -1 0 7 -4
10 -10 6 -5 -3 -7 -12 -4 -19 3 -8 -1 -18 -8 -22 -18 -11 -39 -14 -33 -4 3 4
-6 7 -19 6 -13 0 -22 -4 -19 -8 2 -5 -1 -8 -6 -8 -6 0 -11 6 -11 13 0 8 -4 7
-10 -3 -5 -8 -10 -10 -10 -4 0 7 -7 14 -14 17 -10 4 -13 1 -10 -8 4 -10 -1
-13 -19 -9 -16 2 -27 -1 -31 -12 -3 -8 -10 -12 -16 -9 -5 3 -10 2 -10 -4 0 -5
6 -12 13 -15 6 -3 3 -4 -8 -3 -11 1 -23 7 -27 12 -5 7 -10 7 -15 0 -11 -13
-36 -18 -28 -5 9 14 -8 13 -23 -2 -9 -9 -12 -9 -12 2 0 10 -3 11 -11 3 -6 -6
-18 -9 -25 -6 -10 4 -12 0 -7 -13 5 -13 3 -15 -7 -9 -9 6 -12 4 -8 -7 4 -9 0
-15 -8 -15 -8 0 -14 5 -14 11 0 6 -5 4 -10 -4 -9 -13 -10 -13 -10 0 0 13 -1
13 -10 0 -8 -12 -10 -12 -10 -1 0 10 -3 11 -14 2 -9 -8 -16 -8 -20 -2 -9 14
-45 9 -39 -5 2 -7 -1 -15 -6 -19 -6 -3 -9 -10 -7 -14 3 -4 -4 -8 -15 -8 -10
-1 -19 2 -19 6 0 16 -79 6 -92 -11 -7 -10 -25 -19 -40 -22 -15 -2 -32 -7 -38
-11 -5 -3 -10 -1 -10 5 0 6 -5 8 -12 3 -7 -4 -21 -6 -31 -5 -9 2 -20 -4 -23
-12 -3 -9 -10 -13 -15 -10 -5 3 -6 -1 -4 -8 4 -9 -2 -14 -15 -15 -11 -1 -20 2
-20 7 0 4 -7 11 -16 14 -14 5 -15 4 -5 -8 10 -11 9 -14 -1 -12 -7 1 -19 6 -27
10 -9 6 -12 5 -8 -1 4 -6 0 -14 -9 -17 -9 -3 -14 -12 -11 -19 3 -8 -1 -14 -9
-14 -7 0 -10 5 -7 11 4 6 0 5 -9 -2 -13 -10 -17 -10 -21 0 -4 9 -6 10 -6 1 -1
-7 -8 -10 -18 -6 -13 5 -15 2 -11 -15 5 -18 3 -20 -17 -12 -17 7 -27 5 -36 -6
-12 -14 -15 -14 -27 3 -14 17 -14 17 -8 -1 5 -15 2 -17 -13 -13 -14 3 -18 1
-14 -9 3 -8 0 -14 -7 -14 -6 0 -9 -4 -6 -8 2 -4 -5 -9 -17 -9 -17 -2 -19 0 -7
7 9 6 10 10 3 10 -6 0 -19 -10 -28 -22 l-17 -23 6 25 7 25 -14 -24 c-11 -18
-16 -20 -20 -10 -3 8 -6 4 -7 -11 -1 -14 -4 -19 -7 -12 -4 10 -8 10 -21 0 -13
-11 -14 -11 -7 2 8 13 7 13 -8 1 -11 -9 -17 -10 -17 -2 0 6 -5 11 -11 11 -5 0
-7 -5 -3 -12 5 -7 2 -9 -8 -5 -12 4 -14 1 -11 -13 3 -10 -1 -21 -8 -25 -8 -5
-10 -4 -5 3 9 15 1 15 -25 2 -13 -8 -19 -7 -19 0 0 6 -4 9 -10 5 -5 -3 -7 -12
-4 -19 9 -23 -40 -44 -53 -24 -4 7 -1 8 7 3 9 -5 11 -4 6 4 -4 6 -12 9 -17 5
-5 -3 -7 -9 -4 -14 3 -4 -4 -10 -15 -13 -11 -3 -20 -10 -20 -17 0 -6 6 -8 13
-4 7 4 9 3 4 -2 -12 -12 -30 -12 -39 1 -5 6 -8 4 -8 -5 0 -13 -1 -13 -10 0 -6
9 -10 11 -10 3 0 -7 -7 -10 -16 -6 -14 5 -15 3 -5 -15 8 -15 8 -23 -1 -28 -7
-4 -8 -3 -4 4 4 7 3 12 -3 12 -5 0 -12 -6 -14 -12 -4 -10 -6 -9 -6 1 -1 11 -4
11 -18 0 -11 -9 -14 -10 -9 -2 5 9 2 11 -9 7 -12 -5 -13 -9 -4 -20 9 -12 9
-13 -4 -9 -8 4 -18 1 -23 -6 -5 -8 -3 -10 7 -4 8 5 10 4 6 0 -10 -11 -39 -16
-32 -5 3 4 -6 7 -19 6 -13 0 -22 -4 -20 -8 2 -3 1 -8 -3 -11 -5 -2 -2 -2 5 0
7 1 10 -2 7 -7 -3 -6 -13 -10 -21 -10 -8 0 -13 -4 -10 -8 7 -12 -38 -9 -46 3
-4 6 -8 2 -8 -8 0 -10 -4 -15 -10 -12 -6 4 -7 -1 -3 -11 5 -13 3 -15 -7 -9
-10 6 -12 4 -7 -11 7 -18 6 -18 -6 -2 -11 14 -16 15 -27 5 -10 -10 -11 -9 -6
3 5 9 2 9 -7 -2 -8 -10 -18 -14 -22 -10 -4 4 -3 -2 3 -14 9 -16 8 -21 -3 -21
-8 0 -12 4 -9 8 2 4 -1 11 -7 15 -8 4 -9 3 -5 -4 4 -7 2 -12 -4 -12 -6 0 -8
-5 -5 -10 9 -15 -12 -39 -31 -36 -9 1 -20 9 -26 17 -8 11 -9 11 -4 -3 3 -12 0
-18 -10 -18 -11 0 -14 -5 -10 -17 4 -10 4 -14 0 -10 -4 4 -14 1 -22 -6 -11 -8
-14 -8 -9 0 4 6 2 15 -4 19 -7 4 -9 3 -6 -2 3 -6 2 -16 -4 -24 -7 -13 -9 -12
-9 2 0 24 -27 12 -37 -15 -4 -12 -6 -26 -5 -32 1 -5 -4 -1 -13 9 -14 19 -15
18 -21 -12 -4 -17 -10 -29 -15 -26 -5 3 -6 10 -3 16 4 7 2 8 -5 4 -6 -4 -9
-12 -6 -17 4 -5 2 -9 -4 -9 -5 0 -12 6 -14 13 -4 7 -8 3 -12 -10 -4 -13 -12
-23 -17 -23 -5 0 -6 5 -2 12 4 7 3 8 -5 4 -6 -4 -9 -11 -6 -16 3 -5 -4 -14
-15 -20 -11 -6 -20 -15 -20 -21 0 -6 6 -7 13 -3 6 4 8 3 4 -1 -14 -16 -37 -14
-38 3 0 11 -2 12 -6 4 -2 -7 -14 -17 -26 -24 -19 -9 -20 -9 -12 3 6 9 4 8 -5
-1 -8 -9 -24 -22 -35 -29 -14 -9 -15 -11 -3 -7 12 3 15 1 11 -9 -3 -8 -9 -12
-14 -9 -5 3 -9 -2 -9 -11 0 -9 -5 -13 -10 -10 -6 4 -7 11 -4 17 4 7 2 8 -5 4
-6 -4 -9 -12 -6 -17 4 -5 2 -9 -4 -9 -5 0 -12 6 -14 13 -4 7 -8 3 -12 -10 -4
-13 -12 -23 -17 -23 -5 0 -6 5 -2 12 4 7 3 8 -5 4 -6 -4 -9 -12 -6 -17 4 -5
-1 -12 -10 -15 -9 -4 -14 -13 -11 -20 4 -10 -1 -11 -22 -4 -25 9 -25 9 -9 -4
18 -14 17 -14 -10 -12 -15 1 -34 5 -40 9 -9 6 -11 3 -6 -9 4 -10 0 -20 -11
-26 -9 -5 -13 -14 -9 -21 4 -8 1 -7 -9 1 -14 12 -16 10 -11 -10 3 -13 3 -20
-2 -16 -4 4 -14 0 -22 -8 -9 -8 -21 -13 -29 -10 -7 3 -18 -2 -24 -9 -7 -8 -16
-12 -21 -9 -5 2 -11 -6 -15 -20 -4 -17 -11 -23 -22 -19 -11 5 -13 3 -7 -7 6
-10 4 -12 -8 -7 -11 4 -14 2 -10 -9 3 -9 -1 -14 -12 -14 -9 0 -14 -4 -10 -9 3
-5 0 -13 -6 -17 -7 -4 -10 -3 -7 2 3 5 0 14 -7 21 -10 10 -14 9 -19 -3 -3 -9
-11 -12 -17 -8 -8 4 -9 3 -5 -5 6 -9 12 -9 24 1 10 7 6 0 -7 -15 -25 -28 -38
-36 -25 -16 4 7 2 10 -5 8 -7 -3 -11 -8 -9 -11 2 -4 -6 -14 -17 -23 l-20 -15
20 6 c11 3 1 -6 -23 -21 -23 -14 -40 -30 -37 -36 3 -5 -1 -6 -10 -3 -11 5 -14
2 -8 -12 4 -12 3 -15 -5 -10 -7 4 -12 3 -12 -1 0 -5 -9 -14 -21 -21 -12 -8
-18 -9 -15 -3 4 5 2 13 -4 16 -6 4 -10 3 -9 -2 6 -32 -2 -42 -24 -34 -18 7
-24 6 -24 -4 0 -8 5 -11 11 -8 6 4 5 0 -2 -9 -7 -9 -21 -15 -31 -13 -12 2 -18
-2 -17 -13 0 -10 -5 -16 -13 -14 -12 3 -12 0 -1 -13 11 -13 10 -15 -4 -9 -9 3
-16 1 -16 -5 0 -6 -5 -10 -12 -8 -7 1 -12 -4 -13 -11 0 -7 -6 -17 -14 -21 -8
-5 -10 -14 -6 -21 5 -8 4 -11 -3 -6 -6 3 -14 1 -17 -5 -4 -5 -13 -8 -19 -6 -7
3 -13 -1 -13 -9 0 -8 5 -14 11 -14 6 0 4 -4 -4 -10 -9 -6 -17 -5 -22 3 -5 8
-8 4 -8 -10 0 -12 -5 -25 -12 -29 -6 -4 -8 -3 -4 4 3 6 2 13 -3 16 -5 4 -8 -1
-7 -10 1 -8 8 -19 15 -23 10 -6 9 -10 -3 -14 -8 -3 -17 -1 -20 6 -2 7 -5 4 -5
-6 -1 -11 -6 -15 -13 -11 -7 4 -8 3 -4 -5 4 -6 12 -9 17 -5 6 3 5 -3 -3 -15
-7 -12 -16 -21 -21 -21 -4 0 -5 5 -1 12 4 7 3 8 -5 4 -6 -4 -9 -11 -6 -16 3
-4 -4 -10 -15 -13 -14 -4 -18 -10 -13 -23 4 -12 3 -15 -5 -10 -7 4 -12 1 -12
-7 0 -15 -45 -58 -53 -51 -2 3 -7 -2 -10 -10 -4 -9 -1 -18 5 -22 7 -5 8 -2 3
6 -5 9 -4 11 4 6 6 -4 9 -12 5 -17 -3 -5 -10 -6 -16 -3 -8 5 -9 1 -5 -10 6
-14 3 -16 -15 -10 -20 6 -21 5 -10 -8 10 -13 9 -16 -9 -21 -14 -4 -18 -10 -13
-19 5 -9 2 -8 -11 2 -17 14 -18 14 -5 -10 13 -24 12 -24 -5 -10 -17 14 -18 14
-5 -9 11 -21 10 -23 -4 -18 -9 4 -16 2 -16 -3 0 -6 5 -10 10 -10 6 0 10 -5 10
-10 0 -7 -8 -6 -23 1 -20 11 -21 11 -8 -4 10 -13 10 -17 1 -17 -9 0 -9 -4 1
-17 13 -15 12 -15 -10 -4 -19 11 -22 11 -16 0 6 -9 3 -10 -10 -5 -15 5 -16 4
-6 -8 9 -11 9 -15 -1 -19 -10 -4 -10 -6 0 -6 17 -1 15 -26 -4 -42 -12 -10 -17
-10 -23 0 -6 10 -10 9 -14 -4 -4 -9 -3 -13 3 -10 6 3 10 2 10 -4 0 -5 -6 -12
-12 -14 -9 -4 -9 -6 1 -6 11 -1 10 -5 -5 -17 -10 -8 -14 -13 -8 -10 6 3 11 -1
11 -8 0 -8 -6 -12 -14 -9 -13 5 -15 0 -17 -42 -1 -11 -5 -26 -10 -34 -7 -11
-10 -11 -17 0 -7 11 -9 10 -9 -3 0 -10 -4 -18 -8 -18 -5 0 -9 -7 -9 -15 0 -8
7 -15 14 -15 8 0 11 -5 8 -10 -4 -6 -11 -7 -17 -4 -7 5 -9 2 -6 -7 4 -10 -1
-15 -13 -16 -12 -1 -17 3 -13 9 4 7 2 8 -5 4 -9 -6 -9 -11 -1 -21 8 -10 7 -14
-2 -18 -11 -4 -11 -6 0 -6 10 -1 10 -6 1 -22 -6 -12 -7 -19 -2 -16 5 3 9 -5 9
-18 0 -13 -4 -21 -8 -19 -5 3 -5 10 -2 16 4 7 2 8 -4 4 -6 -4 -8 -14 -5 -23 4
-11 3 -14 -5 -9 -7 4 -12 2 -12 -4 0 -6 -4 -9 -9 -6 -10 7 -9 -49 2 -60 9 -10
9 -26 -1 -20 -4 2 -8 -4 -8 -15 0 -10 7 -19 16 -20 9 0 6 -4 -7 -9 -13 -5 -23
-12 -23 -15 0 -4 6 -3 13 0 6 4 1 -2 -12 -13 -23 -18 -40 -59 -20 -46 5 3 9 1
9 -5 0 -5 -6 -12 -12 -14 -10 -4 -10 -6 0 -6 10 -1 10 -6 1 -22 -6 -12 -7 -19
-2 -16 5 4 10 0 10 -8 0 -8 -4 -12 -9 -9 -4 3 -8 0 -8 -5 0 -6 6 -11 13 -11 9
0 8 -3 -2 -9 -11 -7 -11 -9 0 -13 12 -4 12 -8 1 -20 -10 -13 -10 -17 0 -21 10
-4 10 -7 -1 -15 -8 -6 -11 -17 -8 -26 7 -18 -4 -21 -20 -5 -7 7 -9 3 -6 -15 4
-18 1 -26 -8 -26 -11 0 -11 -2 1 -10 13 -9 13 -10 0 -10 -13 0 -13 -1 0 -10
13 -9 13 -10 0 -10 -13 0 -13 -1 0 -11 12 -8 12 -12 2 -16 -10 -4 -10 -8 0
-21 7 -9 8 -13 2 -9 -6 3 -11 0 -11 -8 0 -8 4 -12 9 -9 4 3 8 0 8 -5 0 -6 -5
-11 -11 -11 -8 0 -7 -6 2 -17 12 -15 12 -16 -1 -8 -12 6 -13 5 -2 -6 16 -17
16 -32 0 -23 -9 5 -8 2 1 -9 12 -16 12 -17 -5 -11 -18 5 -18 5 -1 -6 12 -7 15
-16 9 -23 -10 -15 -9 -97 2 -115 4 -7 5 -16 2 -19 -3 -4 -6 -1 -6 6 0 7 -5 9
-11 5 -8 -5 -6 -10 5 -16 11 -6 14 -14 8 -21 -11 -15 -9 -97 2 -116 6 -10 5
-12 -2 -7 -7 4 -12 2 -12 -3 0 -6 5 -11 10 -11 6 0 10 -5 10 -11 0 -5 -4 -8
-8 -5 -7 4 -9 -44 -2 -51 7 -8 4 -29 -5 -35 -6 -5 -4 -8 5 -8 13 0 13 -1 0
-10 -8 -5 -10 -10 -3 -10 6 0 10 -11 9 -24 -2 -16 1 -23 9 -19 7 2 17 -1 21
-8 10 -17 15 -61 5 -55 -4 3 -7 -8 -6 -24 0 -16 4 -26 10 -23 5 3 4 0 -2 -8
-18 -19 -16 -32 5 -25 14 5 14 4 -2 -9 -12 -9 -15 -15 -7 -15 10 0 11 -3 2
-13 -8 -10 -7 -17 2 -27 8 -9 9 -11 0 -6 -6 3 -15 1 -19 -5 -4 -8 -3 -9 4 -5
7 4 12 2 12 -5 0 -7 3 -9 7 -6 3 4 12 -1 20 -11 9 -11 12 -11 7 -2 -5 12 -4
13 6 3 11 -10 11 -15 0 -28 -10 -12 -10 -15 1 -16 8 0 5 -4 -6 -9 -17 -7 -17
-9 -2 -9 17 -1 22 -12 10 -25 -12 -12 -12 -37 0 -29 7 4 5 -2 -3 -12 -14 -17
-13 -18 7 -13 16 4 20 2 16 -8 -3 -8 0 -14 6 -14 6 0 11 -5 11 -11 0 -5 -5 -7
-12 -3 -7 4 -8 3 -4 -5 4 -6 12 -9 17 -6 5 4 9 1 9 -4 0 -6 -4 -11 -8 -11 -5
0 -9 -7 -9 -15 0 -8 5 -15 10 -15 5 0 3 -8 -4 -17 -12 -15 -12 -16 8 -11 16 4
20 2 16 -8 -3 -8 0 -14 7 -14 6 0 8 -5 4 -12 -5 -8 -1 -9 12 -5 18 7 18 6 1
-7 -14 -10 -15 -15 -5 -19 10 -4 10 -6 0 -6 -10 -1 -10 -4 0 -15 7 -8 17 -11
22 -8 5 3 6 -3 3 -12 -6 -14 -3 -17 9 -12 14 5 15 4 4 -9 -10 -12 -10 -15 0
-15 9 0 9 -4 -1 -17 -8 -9 -9 -14 -3 -10 7 4 14 -2 17 -13 3 -11 11 -19 19
-17 7 2 10 2 6 0 -5 -3 -8 -9 -8 -14 0 -6 5 -7 12 -3 7 5 8 3 2 -7 -14 -22
-13 -36 2 -37 8 -1 20 -3 27 -4 8 -1 14 -7 14 -15 0 -9 -4 -10 -13 -2 -8 7
-14 6 -20 -2 -4 -7 -3 -10 2 -7 5 3 15 0 22 -8 7 -8 9 -14 5 -14 -4 0 -1 -6 5
-12 7 -7 18 -13 25 -13 15 0 16 -27 2 -37 -6 -5 -4 -8 5 -8 13 0 13 -1 0 -11
-12 -9 -11 -10 7 -6 16 4 20 1 16 -11 -5 -11 -2 -14 9 -10 8 4 15 1 15 -8 0
-7 -3 -11 -7 -9 -4 2 -7 -3 -7 -11 0 -9 6 -13 15 -9 10 4 12 0 8 -11 -5 -14
-4 -15 8 -5 11 9 16 9 22 0 4 -8 3 -9 -4 -5 -7 4 -12 1 -12 -8 0 -9 4 -16 9
-16 6 0 8 -9 6 -21 -3 -15 -1 -18 8 -11 8 6 18 3 32 -12 11 -11 16 -18 10 -13
-17 13 -27 7 -11 -8 8 -8 22 -15 32 -15 13 0 14 -3 5 -14 -9 -11 -9 -15 1 -19
10 -4 10 -6 0 -6 -17 -1 37 -61 55 -61 8 0 11 -4 8 -10 -3 -5 2 -10 12 -10 15
0 16 -2 3 -10 -12 -8 -10 -10 10 -10 20 0 22 -2 10 -10 -12 -8 -10 -10 8 -10
15 0 21 -4 16 -12 -5 -7 -2 -9 9 -5 11 4 14 2 10 -9 -3 -8 1 -14 11 -14 9 0
16 -5 16 -11 0 -5 -4 -7 -10 -4 -6 4 -7 -1 -3 -11 4 -12 8 -14 11 -6 3 10 7
10 18 1 8 -6 11 -15 8 -20 -3 -5 4 -9 15 -9 13 0 21 -6 21 -18 0 -9 10 -22 22
-27 13 -6 22 -16 20 -23 -1 -7 7 -12 18 -12 13 0 20 -7 20 -20 0 -13 7 -20 20
-20 14 0 20 -7 20 -22 0 -19 2 -20 10 -8 8 12 10 11 10 -7 0 -15 7 -23 22 -25
12 -2 28 -14 35 -28 7 -14 13 -20 13 -15 0 6 7 -1 14 -15 8 -14 12 -29 9 -33
-3 -5 5 -3 18 4 23 12 23 11 9 -6 -8 -11 -10 -16 -3 -11 7 4 21 2 30 -4 16
-10 16 -11 1 -6 -12 3 -15 1 -11 -9 3 -8 9 -12 14 -9 5 3 9 -3 9 -13 0 -14 2
-15 9 -4 7 11 10 9 13 -10 2 -19 9 -24 30 -23 18 0 24 -4 19 -10 -11 -14 -10
-47 1 -40 5 3 5 10 2 16 -4 5 4 4 17 -2 30 -16 39 -25 17 -17 -12 4 -15 2 -11
-9 5 -14 12 -17 44 -17 9 0 16 -6 16 -13 0 -11 -3 -11 -16 -1 -12 10 -13 9 -6
-3 10 -17 36 -37 49 -38 5 0 12 -6 17 -13 4 -7 14 -14 22 -15 40 -6 56 -16 50
-31 -4 -11 -2 -14 5 -9 7 4 12 2 12 -4 0 -6 4 -8 10 -5 6 4 7 -1 3 -12 -6 -15
-5 -16 9 -5 14 12 16 10 10 -10 -5 -21 -4 -22 13 -8 11 9 16 10 11 3 -4 -8 -2
-13 5 -13 7 0 9 -3 6 -7 -4 -3 -2 -12 4 -19 8 -10 16 -11 30 -3 13 7 19 6 19
-1 0 -6 4 -9 9 -5 5 3 13 0 17 -6 4 -8 3 -9 -4 -5 -7 4 -12 2 -12 -3 0 -6 6
-11 14 -11 22 0 49 -42 33 -52 -6 -4 -7 -8 -2 -8 6 0 16 5 23 12 9 9 12 9 12
0 0 -7 8 -12 18 -12 9 0 32 -9 50 -20 30 -18 32 -23 20 -37 -9 -12 -9 -15 -1
-9 7 4 13 3 13 -3 0 -6 7 -8 15 -5 8 4 12 11 9 18 -3 6 1 3 9 -6 8 -10 17 -15
21 -11 4 4 4 0 1 -9 -4 -9 -1 -19 6 -24 7 -4 10 -3 5 4 -3 6 -2 14 4 17 6 4
10 3 9 -2 -5 -28 1 -35 19 -22 9 7 14 10 11 6 -4 -5 4 -19 18 -33 26 -26 39
-32 27 -11 -6 9 -5 9 8 0 8 -7 18 -11 21 -8 4 3 5 2 3 -1 -2 -3 3 -14 12 -23
12 -12 21 -15 30 -8 8 6 12 5 12 -4 0 -11 2 -11 10 1 8 12 10 10 10 -10 0 -20
2 -22 10 -10 8 12 10 10 10 -9 0 -17 3 -21 13 -14 6 5 17 9 24 9 17 -1 53 -42
45 -51 -4 -4 0 -5 8 -3 8 1 18 8 22 13 5 6 8 5 8 -2 0 -7 10 -13 23 -14 12 0
16 -3 10 -6 -10 -3 -9 -8 3 -20 12 -13 18 -13 27 -3 9 10 9 11 -2 5 -10 -6
-12 -4 -6 5 6 9 13 6 29 -12 11 -13 17 -19 13 -12 -5 7 -3 15 4 20 8 4 9 3 5
-4 -4 -7 -2 -12 3 -12 6 0 11 -9 11 -20 0 -11 5 -20 11 -20 5 0 7 5 3 11 -4 7
1 7 16 -1 15 -8 20 -8 16 -1 -4 6 -2 11 3 11 10 0 16 -22 12 -43 -1 -5 4 -5
10 -1 7 4 19 -1 27 -12 13 -16 14 -17 9 -1 -4 9 -2 17 3 17 6 0 10 -6 10 -12
0 -9 4 -8 10 2 8 13 10 12 10 -2 0 -10 5 -18 11 -18 8 0 7 -6 -2 -18 -13 -16
-12 -16 4 -3 16 13 20 13 28 0 7 -12 9 -12 9 0 0 9 8 5 21 -10 21 -24 21 -24
15 -1 -5 14 -3 22 4 22 6 0 9 -3 7 -7 -3 -5 -1 -19 4 -32 8 -19 12 -21 24 -11
12 10 15 10 15 0 0 -10 3 -10 15 0 12 10 15 10 15 0 0 -10 3 -10 15 0 12 10
15 9 16 -4 3 -30 4 -34 13 -43 5 -5 6 -3 2 5 -4 7 -1 12 8 12 9 0 16 -6 16
-12 0 -10 3 -9 9 1 7 11 9 11 14 0 4 -10 8 -11 14 -3 6 9 12 7 23 -4 13 -14
12 -15 -5 -8 -18 7 -18 6 -1 -13 14 -16 23 -18 37 -10 14 7 19 6 19 -2 0 -8 4
-8 15 1 10 9 15 9 15 1 0 -6 9 -11 21 -11 11 0 17 -4 14 -10 -3 -5 -1 -10 5
-10 6 0 8 -4 5 -10 -3 -5 -2 -10 4 -10 5 0 12 6 15 13 3 8 8 7 16 -6 9 -14 15
-15 25 -7 14 12 31 -3 21 -18 -3 -5 1 -9 8 -9 8 0 12 7 10 16 -3 9 1 6 7 -6 7
-13 16 -23 21 -23 5 0 6 6 2 13 -5 7 0 6 11 -3 10 -8 16 -10 12 -3 -4 6 -2 15
4 19 7 4 9 3 5 -4 -3 -6 -1 -14 5 -18 6 -3 15 0 20 7 5 8 9 9 9 3 0 -5 -6 -16
-12 -23 -10 -11 -10 -13 0 -7 7 5 12 1 12 -10 0 -14 2 -15 17 -3 15 12 16 12
8 -1 -8 -13 -7 -13 8 -1 9 7 17 9 17 4 0 -5 7 -10 15 -10 9 0 14 6 11 14 -4
10 -1 10 13 1 10 -6 18 -18 17 -27 0 -8 4 -16 11 -16 6 0 15 -3 19 -7 4 -5 12
-8 18 -8 6 0 4 5 -4 10 -8 5 -10 10 -5 10 6 0 16 -5 23 -12 9 -9 12 -9 12 1 0
11 3 11 17 0 9 -8 14 -9 10 -3 -4 7 2 10 18 7 17 -4 22 -10 18 -22 -5 -13 -2
-13 18 4 13 11 19 13 12 6 -9 -11 -9 -17 2 -27 15 -16 29 -19 20 -5 -3 5 -1
13 5 16 6 4 9 1 8 -6 -2 -6 7 -12 19 -14 19 -1 21 1 10 14 -10 12 -9 13 3 6 8
-5 21 -17 28 -27 7 -10 22 -18 33 -18 10 0 19 -4 19 -10 0 -5 5 -10 11 -10 5
0 7 6 3 13 -6 9 -4 9 8 -1 13 -10 17 -10 22 0 5 10 7 10 12 1 4 -10 11 -10 27
-1 21 10 21 10 7 -7 -14 -17 -14 -18 8 -6 18 10 22 9 22 -4 0 -8 6 -15 13 -15
8 0 7 -4 -3 -10 -8 -5 -10 -10 -5 -10 6 0 16 5 23 12 9 9 12 9 12 0 0 -7 5
-12 11 -12 5 0 7 6 3 12 -6 10 -4 10 8 0 14 -11 18 -10 27 5 8 14 11 15 12 3
1 -8 1 -18 1 -21 -1 -4 9 -4 21 -1 20 5 21 4 8 -11 -12 -15 -12 -17 4 -11 10
4 21 1 26 -7 8 -12 10 -12 18 0 6 9 11 10 15 2 4 -6 13 -11 19 -11 7 0 6 4 -3
10 -8 5 -10 10 -5 10 6 0 16 -5 23 -12 9 -9 12 -9 12 1 0 11 3 11 17 0 11 -10
14 -10 9 -1 -4 6 -3 12 2 12 5 0 14 -10 21 -23 6 -12 9 -14 7 -5 -4 15 -2 16
19 6 14 -6 25 -18 25 -27 0 -14 2 -14 10 -1 8 12 10 12 10 1 0 -11 3 -11 16 0
9 7 18 9 22 3 10 -13 35 -17 27 -4 -3 5 -1 10 4 10 6 0 11 -6 11 -12 0 -9 4
-8 10 2 9 13 10 13 10 0 0 -13 1 -13 10 0 8 12 10 10 10 -8 0 -13 4 -21 9 -17
6 3 13 0 18 -7 4 -7 16 -14 26 -14 14 -2 15 1 6 12 -10 12 -9 13 5 8 9 -3 16
-10 16 -15 0 -5 5 -9 11 -9 5 0 7 6 3 13 -6 9 -4 9 8 -1 13 -10 17 -10 21 0 4
10 7 10 15 -1 8 -11 10 -11 15 0 5 12 6 12 6 0 1 -11 4 -11 17 0 13 10 17 10
24 -1 5 -8 6 -18 3 -24 -3 -5 -1 -6 6 -2 6 4 8 12 5 18 -4 6 0 6 13 -1 11 -6
23 -7 27 -4 3 3 6 1 6 -6 0 -8 -6 -11 -16 -7 -8 3 -13 2 -10 -3 3 -5 15 -11
26 -14 13 -3 18 -1 13 6 -4 7 1 6 10 -2 9 -7 17 -9 17 -4 0 5 7 10 15 10 8 0
12 -4 9 -9 -8 -12 10 -10 24 4 9 9 12 9 12 0 0 -7 5 -12 11 -12 5 0 8 4 5 8
-3 5 1 9 9 9 8 0 12 -3 10 -7 -5 -8 44 -4 69 6 12 4 17 4 13 -2 -3 -6 3 -15
13 -22 13 -7 21 -8 25 -2 4 6 1 9 -6 8 -6 -2 -14 4 -16 12 -4 12 -3 12 5 2 5
-8 13 -14 18 -15 5 -1 8 -5 6 -9 -1 -5 4 -8 10 -8 9 0 8 -4 -2 -10 -8 -5 -10
-10 -5 -10 6 0 16 5 23 12 9 9 12 9 12 -3 0 -12 2 -12 10 1 8 12 10 12 10 1 0
-11 3 -11 15 -1 14 12 19 7 16 -13 -1 -5 3 -6 9 -2 6 3 8 11 5 16 -4 5 -1 9 4
9 6 0 11 -5 11 -11 0 -8 5 -8 15 1 12 10 15 10 15 0 0 -10 3 -10 15 0 12 10
15 10 15 0 0 -10 3 -10 15 0 8 7 15 8 15 3 0 -5 9 -9 19 -9 15 0 17 3 9 13 -8
10 -7 12 6 7 9 -3 16 -10 16 -15 0 -11 23 -7 32 6 5 6 8 4 8 -5 0 -13 1 -13
10 0 8 12 10 10 10 -8 0 -13 4 -20 10 -17 6 3 10 -2 10 -11 0 -14 3 -15 12 -6
15 15 32 16 23 2 -8 -13 17 -8 28 5 6 6 10 6 14 -2 2 -7 9 -13 14 -13 6 0 7 5
3 11 -4 7 1 7 16 -1 15 -8 20 -8 16 -1 -4 6 -2 11 3 11 6 0 11 -6 11 -12 0 -9
4 -8 10 2 9 13 10 13 10 0 0 -13 1 -13 10 0 5 8 10 10 10 4 0 -6 7 -11 15 -11
8 0 12 4 9 9 -3 4 0 8 5 8 6 0 11 -6 11 -12 0 -9 4 -8 10 2 9 13 10 13 10 0 0
-12 2 -13 9 -1 7 11 9 11 14 0 5 -12 8 -11 17 1 9 11 13 12 17 3 2 -7 9 -13
14 -13 6 0 7 6 3 12 -6 10 -4 10 8 0 13 -10 17 -10 21 0 4 10 8 10 16 -2 10
-13 11 -13 12 0 0 10 3 8 9 -5 6 -14 9 -15 10 -5 0 10 7 7 20 -10 17 -21 19
-22 15 -5 -5 16 -3 16 6 -2 7 -13 16 -23 21 -23 5 0 7 4 4 8 -2 4 4 8 15 8 10
0 19 -4 19 -9 0 -5 7 -4 15 3 12 10 15 10 15 0 0 -10 3 -10 15 0 12 10 15 10
15 0 0 -10 3 -10 15 0 12 10 15 10 15 -1 0 -11 2 -11 10 1 6 10 10 11 10 3 0
-7 5 -13 11 -13 5 0 7 5 4 10 -8 13 17 9 27 -4 4 -6 12 -5 21 3 12 9 16 9 19
-1 4 -10 8 -10 21 1 11 9 17 10 17 2 0 -6 5 -11 11 -11 5 0 7 6 3 13 -5 8 -2
8 9 -2 14 -11 17 -11 17 0 0 10 3 10 12 1 7 -7 17 -12 23 -12 5 0 3 5 -5 10
-9 6 -10 10 -3 10 6 0 15 -5 19 -11 4 -8 9 -7 15 2 8 12 11 11 19 -1 9 -13 10
-13 10 0 0 13 1 13 10 0 9 -13 11 -13 21 0 8 11 12 12 16 3 2 -7 9 -13 14 -13
6 0 7 6 3 13 -6 9 -4 9 8 -1 13 -10 17 -10 21 0 4 10 8 10 16 -2 10 -13 11
-13 11 0 0 13 1 13 10 0 9 -13 11 -13 21 0 8 11 12 12 16 3 2 -7 9 -13 14 -13
6 0 7 6 3 13 -5 8 -2 8 9 -2 9 -7 17 -9 17 -4 0 5 7 10 15 10 8 0 15 -4 15 -9
0 -5 9 -4 20 2 15 8 20 8 20 -1 0 -9 3 -9 14 0 10 9 16 9 21 1 5 -8 11 -8 21
1 11 9 14 8 14 -2 0 -11 2 -11 10 1 8 13 10 12 10 -4 0 -17 1 -17 25 -2 29 19
46 22 22 4 -13 -10 -14 -17 -6 -28 9 -12 10 -12 5 3 -4 12 -2 17 6 14 7 -2 20
-1 29 4 10 5 16 3 16 -6 0 -7 -6 -11 -13 -8 -6 2 -15 0 -19 -6 -4 -7 0 -8 11
-4 10 4 15 2 11 -4 -7 -11 22 -11 41 1 7 4 12 2 12 -5 0 -8 4 -9 13 0 10 7 17
7 24 0 7 -7 17 -8 25 -3 20 13 38 14 38 2 0 -6 6 -5 15 2 12 10 15 10 15 -1 1
-9 5 -8 15 5 12 16 15 17 15 4 0 -20 37 -18 50 2 8 12 10 12 10 -5 0 -17 2
-17 10 -5 6 10 10 11 10 3 0 -13 26 -13 47 0 6 4 15 3 18 -3 5 -8 11 -8 20 0
10 8 15 7 19 -2 3 -7 5 -4 3 8 -3 15 1 20 18 20 15 0 21 -5 18 -13 -3 -7 -10
-10 -16 -6 -6 4 -7 1 -2 -6 5 -9 10 -10 18 -2 13 13 31 15 23 3 -3 -5 1 -9 9
-9 11 0 12 5 3 20 -8 15 -7 18 3 12 9 -6 10 -3 5 11 -6 15 -5 16 5 7 9 -9 17
-9 33 -1 19 10 20 10 7 -6 -12 -14 -12 -16 4 -10 12 5 16 4 11 -4 -3 -6 -2
-13 3 -16 5 -4 8 4 7 17 -2 15 2 24 11 24 8 0 12 -7 8 -16 -3 -11 0 -10 10 3
9 12 15 15 15 7 0 -11 3 -11 16 0 13 10 17 10 25 -2 7 -12 10 -12 18 0 6 9 11
10 15 2 4 -6 13 -11 19 -11 7 0 6 4 -3 10 -9 6 -10 10 -3 10 6 0 15 -5 19 -11
4 -8 9 -7 15 2 8 12 11 12 18 0 8 -12 12 -12 24 -2 12 9 16 9 19 -1 4 -11 8
-11 20 0 13 10 17 10 20 0 4 -10 8 -10 21 1 11 9 17 10 17 2 0 -6 5 -11 11
-11 5 0 7 6 3 13 -5 8 -2 8 9 -2 14 -11 17 -11 17 0 0 10 3 10 12 1 7 -7 17
-12 23 -12 5 0 3 5 -5 10 -9 6 -10 10 -3 10 6 0 15 -5 19 -11 4 -8 9 -7 15 2
8 12 11 11 19 -1 9 -13 10 -13 10 0 0 13 1 13 10 0 9 -13 11 -13 21 0 8 11 12
12 16 3 2 -7 9 -13 14 -13 6 0 7 6 3 13 -6 9 -4 9 8 -1 13 -10 17 -10 21 0 4
10 8 10 16 -2 10 -13 11 -13 11 0 0 13 1 13 10 0 9 -13 11 -13 21 0 8 11 12
12 16 3 2 -7 9 -13 14 -13 6 0 7 6 3 13 -6 9 -4 9 8 -1 13 -10 17 -10 21 0 4
10 8 10 15 -1 8 -12 13 -12 25 -2 12 9 16 9 19 -1 4 -11 8 -11 20 0 13 10 17
10 20 0 4 -10 8 -10 21 1 11 9 17 10 17 2 0 -6 5 -11 11 -11 5 0 7 6 3 13 -5
8 -2 8 9 -2 14 -11 17 -11 17 0 0 10 3 10 12 1 7 -7 17 -12 23 -12 5 0 3 5 -5
10 -9 6 -10 10 -3 10 6 0 15 -5 19 -11 4 -8 9 -7 15 2 6 9 12 10 17 4 10 -14
39 -17 47 -5 4 6 -1 7 -12 3 -15 -6 -16 -4 -6 9 7 8 9 18 5 23 -4 4 3 3 15 -4
16 -8 24 -8 29 1 5 7 3 8 -7 3 -8 -5 -10 -4 -6 0 11 12 37 15 37 4 0 -5 5 -9
11 -9 5 0 8 4 5 8 -2 4 4 8 15 8 10 0 19 -4 19 -9 0 -5 7 -4 15 3 11 9 15 9
15 1 0 -9 5 -9 21 0 12 6 19 7 16 2 -3 -5 3 -9 13 -9 10 0 16 4 14 8 -3 4 0 8
5 8 6 0 11 -6 11 -12 0 -9 4 -8 10 2 9 13 10 13 10 0 0 -13 1 -13 10 0 5 8 10
10 10 4 0 -6 7 -11 15 -11 8 0 12 4 9 9 -3 4 0 8 5 8 6 0 11 -6 11 -12 0 -9 4
-8 10 2 9 13 10 13 10 0 0 -13 1 -13 10 0 5 8 10 10 10 3 0 -12 17 -12 38 0 6
5 17 5 22 2 6 -3 15 6 20 20 8 21 13 25 23 16 10 -8 17 -7 25 1 9 9 12 9 12
-1 0 -11 3 -11 15 -1 12 10 15 10 15 0 0 -10 3 -10 15 0 12 10 15 10 15 0 0
-10 3 -10 15 0 11 9 15 9 15 1 0 -9 5 -9 20 -1 19 10 24 6 21 -13 -1 -4 10 0
24 9 14 9 25 12 26 8 0 -5 7 5 14 21 8 17 14 24 15 16 0 -11 3 -11 15 -1 12
10 15 10 15 0 0 -10 3 -10 15 0 12 10 15 10 15 0 0 -10 3 -10 15 0 12 10 15
10 15 0 0 -10 3 -10 15 0 12 10 15 10 15 0 0 -10 3 -10 15 0 12 10 15 10 15
-1 0 -10 3 -10 12 -1 14 14 32 16 24 4 -3 -5 1 -9 9 -9 8 0 12 4 9 9 -3 4 2 8
12 8 13 0 14 3 5 14 -9 11 -8 15 4 20 9 3 13 2 10 -4 -8 -13 1 -13 26 0 13 8
19 7 19 0 0 -8 6 -8 20 0 19 10 25 6 20 -15 -1 -5 8 -1 19 9 19 17 26 15 22
-7 -1 -5 8 -2 21 7 17 12 25 13 36 3 13 -10 14 -9 3 11 -10 18 -9 22 4 22 9 0
14 4 11 8 -2 4 5 9 17 9 18 2 19 0 7 -8 -12 -9 -11 -9 5 -4 41 14 65 15 65 4
0 -7 9 -4 20 6 15 14 19 15 15 4 -4 -10 1 -15 14 -15 16 0 18 3 8 15 -10 12
-9 14 5 9 9 -4 23 1 34 13 9 10 19 17 22 14 3 -3 11 0 19 7 8 6 13 7 12 2 -4
-20 2 -24 21 -14 14 8 20 8 20 0 0 -7 6 -8 18 -2 9 5 24 7 32 4 13 -5 13 -3 0
13 -8 10 -10 16 -3 12 6 -4 19 0 27 9 9 8 16 11 16 6 0 -5 7 -9 15 -9 8 0 12
4 9 9 -3 4 0 8 5 8 6 0 11 -6 11 -12 0 -10 3 -9 9 1 7 11 9 11 13 0 4 -12 7
-12 21 0 12 9 17 10 17 2 0 -7 5 -9 10 -6 6 4 8 11 5 16 -3 5 1 6 9 3 9 -3 16
-1 16 5 0 6 -5 11 -11 11 -5 0 -7 5 -3 11 4 8 9 7 16 -2 8 -11 11 -11 15 -1 4
10 8 10 21 0 12 -10 14 -10 8 0 -4 6 -2 12 3 12 6 0 11 -5 11 -11 0 -8 6 -7
17 2 15 12 16 12 8 -1 -7 -13 -6 -13 7 -2 13 10 17 10 22 0 3 -7 4 -3 2 9 -2
12 2 27 10 34 9 7 14 8 14 1 0 -6 -5 -12 -12 -14 -7 -3 -5 -7 6 -11 9 -4 15
-3 12 2 -8 13 24 37 32 25 4 -6 25 -10 47 -9 31 0 39 4 37 17 -4 28 41 46 65
26 9 -7 13 -7 13 1 0 7 5 9 13 4 16 -10 56 -16 40 -5 -13 8 -12 37 2 49 4 4 5
2 1 -4 -4 -7 -2 -13 3 -13 6 0 11 6 11 13 0 8 4 7 10 -3 9 -13 10 -13 10 0 0
13 1 13 10 0 8 -13 10 -13 10 -1 0 11 4 9 15 -5 12 -15 14 -16 9 -2 -5 14 -1
16 16 13 18 -3 21 0 17 15 -3 14 -1 17 11 13 10 -4 13 -2 8 5 -4 7 -2 12 3 12
6 0 11 -4 11 -10 0 -5 5 -10 11 -10 5 0 7 6 3 13 -5 8 -2 8 9 -2 12 -9 17 -10
17 -2 0 7 5 9 12 5 7 -5 21 -9 30 -9 14 -1 15 1 6 12 -9 11 -7 15 10 19 14 4
19 12 15 22 -4 14 -3 14 5 3 11 -15 55 -24 46 -9 -3 4 0 8 5 8 6 0 11 -4 11
-10 0 -5 5 -10 12 -10 6 0 8 3 5 7 -4 3 1 12 11 20 11 9 11 12 2 7 -12 -6 -13
-4 -3 6 16 17 53 24 53 10 0 -6 5 -10 11 -10 5 0 7 5 3 12 -5 7 -2 9 8 5 12
-4 14 -1 11 14 -4 15 -2 18 12 12 14 -5 16 -3 10 8 -7 11 -5 11 10 -1 10 -8
16 -10 12 -3 -4 6 -3 15 3 18 6 4 9 1 8 -6 -2 -7 9 -13 25 -14 17 -1 27 3 27
12 0 8 4 11 10 8 5 -3 7 0 4 8 -3 8 0 18 7 23 8 5 10 3 4 -6 -6 -9 -2 -10 16
-4 13 4 33 8 45 9 15 0 20 6 18 23 -1 12 2 22 8 22 6 0 8 -6 5 -13 -3 -8 1
-14 8 -14 8 0 11 7 8 16 -5 12 -3 13 7 4 12 -11 70 1 70 16 0 3 10 12 21 20
17 10 23 10 29 1 6 -10 12 -10 26 0 19 11 19 11 0 6 -15 -5 -15 -2 5 18 13 14
26 21 27 15 3 -6 10 -5 20 3 13 11 14 11 7 -2 -8 -13 -7 -13 8 -1 13 10 20 11
31 2 10 -8 16 -9 21 -1 4 6 3 10 -2 9 -20 -3 -22 2 -6 21 11 12 19 16 24 9 4
-8 14 -7 30 3 30 17 53 38 42 38 -5 0 -14 -5 -19 -10 -7 -7 -11 -6 -11 3 0 8
11 13 28 13 15 0 26 -2 24 -6 -2 -3 7 -6 20 -6 16 0 21 4 17 15 -4 10 -1 12 8
6 10 -6 12 -4 6 10 -6 16 -4 16 11 4 9 -8 14 -9 10 -2 -4 6 -3 14 3 18 5 3 10
2 10 -3 0 -6 11 -9 24 -8 13 0 22 5 19 9 -3 5 4 17 16 28 12 11 21 16 21 11 0
-5 7 -9 15 -9 8 0 11 5 8 10 -4 6 0 8 11 4 13 -5 15 -2 12 18 -3 18 -1 23 7
18 7 -4 21 -9 32 -10 14 -2 16 0 7 5 -10 7 -9 12 4 23 10 8 15 9 11 2 -4 -6
-3 -15 3 -18 6 -4 10 -3 9 2 -4 21 2 47 9 38 11 -16 26 -15 42 3 13 14 12 15
-3 9 -11 -4 -16 -3 -12 3 3 6 13 10 21 10 10 0 12 5 8 13 -5 7 0 6 11 -3 11
-9 16 -10 11 -2 -4 6 -2 12 3 12 6 0 11 -4 11 -10 0 -5 5 -10 11 -10 5 0 7 5
4 10 -3 6 2 10 12 10 15 0 16 2 3 10 -13 8 -12 10 3 10 10 0 15 4 12 10 -3 5
0 7 9 4 8 -3 23 -1 33 6 16 10 15 10 -7 6 -14 -3 -19 -3 -12 0 6 3 10 10 7 15
-4 5 1 6 9 3 18 -7 68 25 59 39 -4 6 -1 7 7 2 10 -6 8 -12 -9 -27 -13 -10 -19
-18 -14 -18 12 0 49 39 46 49 -1 3 1 8 3 10 2 2 4 -2 4 -10 1 -9 8 -5 22 11
14 16 19 19 15 7 -9 -24 5 -21 21 4 11 17 11 20 0 14 -15 -7 10 13 39 32 17
12 17 12 -2 7 -20 -5 -20 -5 -1 7 15 9 21 9 24 1 2 -7 8 -12 13 -12 6 0 7 6 3
12 -5 8 0 7 11 -2 11 -9 16 -10 11 -2 -4 7 -1 12 8 12 9 0 15 3 15 8 -3 18 2
32 12 32 5 0 7 -6 4 -12 -4 -7 1 -4 9 6 9 11 16 24 16 29 0 5 7 6 16 3 14 -6
15 -4 4 9 -11 14 -10 17 8 22 12 3 20 9 17 12 -2 4 2 8 10 8 8 0 11 -5 8 -11
-3 -6 8 2 25 18 18 17 37 26 46 23 8 -3 18 -1 22 5 4 7 3 8 -4 4 -7 -4 -12 -3
-12 3 0 6 9 15 20 21 11 6 18 15 15 20 -3 6 1 7 10 4 11 -5 14 -2 8 12 -3 9
-2 15 3 12 10 -7 36 17 27 25 -3 3 4 3 16 0 13 -3 21 -1 21 6 0 7 -5 9 -12 5
-7 -4 -8 -3 -4 4 5 8 13 9 25 3 19 -11 29 -6 51 24 l15 20 -25 -20 c-20 -16
-22 -17 -11 -2 8 10 22 22 32 28 15 8 18 6 13 -8 -5 -15 -4 -16 5 -3 14 20 14
43 -1 34 -6 -4 -8 -3 -5 4 8 11 25 11 44 -1 10 -6 11 -2 3 17 -6 17 -6 27 2
32 7 5 8 2 3 -6 -6 -10 -4 -12 9 -7 10 4 19 7 22 7 2 0 0 8 -3 17 -5 13 -2 15
11 10 10 -4 15 -3 11 3 -3 5 4 14 15 20 11 6 20 15 20 21 0 6 -5 7 -12 3 -6
-4 -8 -3 -5 4 4 5 16 8 27 5 11 -3 20 0 20 6 0 5 12 18 28 26 15 9 19 14 10
11 -10 -3 -26 -9 -35 -12 -10 -3 -5 2 10 11 15 9 25 20 22 25 -3 4 3 6 13 3
10 -2 25 3 32 12 12 14 12 18 -1 26 -8 5 -9 9 -2 9 6 0 19 3 29 7 13 5 15 3 9
-7 -5 -9 -4 -11 3 -6 9 5 9 13 0 29 -10 20 -10 21 6 8 14 -12 16 -12 10 4 -5
13 -4 16 4 11 7 -4 12 -1 12 9 0 9 4 14 9 11 5 -3 11 1 14 9 4 10 1 12 -11 8
-15 -6 -15 -5 1 11 9 10 15 21 12 26 -3 4 5 6 17 3 23 -5 23 -5 3 11 -14 12
-15 14 -4 10 10 -3 20 0 25 7 5 8 3 10 -7 5 -8 -4 -5 0 5 8 11 9 24 16 29 16
5 0 3 7 -4 17 -13 15 -12 15 10 4 15 -8 21 -9 17 -2 -4 6 0 11 10 11 13 0 14
3 5 14 -9 11 -8 15 4 20 9 3 13 2 10 -4 -3 -6 1 -7 9 -4 9 3 13 11 10 16 -4 6
0 14 7 19 9 6 10 9 2 9 -12 0 -10 37 3 49 4 3 4 -2 1 -12 -6 -15 -4 -16 16 -6
28 15 37 24 15 16 -12 -4 -15 -2 -11 9 3 8 12 13 20 10 8 -3 11 -1 8 4 -5 9 6
14 26 12 3 0 5 10 5 24 0 15 -6 24 -15 25 -11 0 -12 2 -3 6 6 2 10 8 7 13 -3
4 3 6 13 3 10 -2 25 3 33 13 9 11 9 15 2 10 -7 -4 -13 -3 -13 3 0 5 6 12 13
14 8 4 8 6 -2 6 -11 1 -10 5 5 16 19 15 19 15 -1 9 -11 -3 -5 4 13 17 24 15
30 24 21 30 -10 6 -10 11 1 24 12 14 12 18 -1 26 -11 7 -10 8 6 6 11 -1 25 -5
30 -9 6 -4 11 2 11 12 0 10 -5 16 -11 12 -5 -3 -4 2 4 11 7 9 9 17 4 17 -5 0
-10 6 -10 14 0 8 5 12 11 10 17 -6 36 10 41 35 2 14 0 19 -7 15 -7 -5 -8 -2
-2 7 12 19 12 52 -1 62 -5 4 2 5 16 1 17 -3 30 -1 34 7 5 8 4 10 -3 5 -7 -4
-12 -2 -12 3 0 6 4 11 8 11 16 0 9 30 -7 31 -11 0 -12 2 -3 6 6 2 9 10 5 16
-4 7 2 5 12 -3 17 -14 18 -14 5 9 -10 20 -10 23 1 19 8 -3 20 1 28 9 12 13 11
14 -8 8 -29 -9 -26 1 7 20 15 9 20 14 12 12 -18 -5 -23 33 -6 45 7 5 5 8 -4 8
-13 0 -13 1 0 10 12 8 13 11 1 19 -9 6 -10 11 -2 15 6 4 11 13 11 19 0 7 -4 6
-10 -3 -5 -8 -10 -10 -10 -4 0 6 7 17 15 24 12 10 15 10 16 -1 0 -8 5 -3 11
11 12 28 18 111 7 104 -4 -2 -6 4 -4 13 2 10 4 18 5 18 1 0 3 12 4 27 2 18 -1
25 -8 21 -8 -5 -8 -3 0 8 9 12 11 30 4 44 -10 22 -1 51 18 61 12 6 26 15 30
19 4 5 1 5 -5 1 -16 -9 -16 -1 -2 26 6 11 7 18 2 15 -4 -3 -8 8 -8 23 -1 16 3
26 7 24 4 -3 8 0 8 5 0 6 -6 11 -12 11 -10 0 -9 3 1 9 11 7 11 9 0 13 -12 4
-12 7 0 21 9 11 10 17 2 17 -6 0 -11 5 -11 11 0 6 8 8 18 5 16 -6 16 -5 -1 8
-14 11 -15 15 -5 20 10 5 10 7 1 12 -7 3 -13 10 -13 15 0 6 5 7 11 3 8 -5 8
-1 0 14 -14 26 -14 35 0 26 7 -4 7 1 -1 16 -8 15 -8 20 -1 16 18 -11 13 6 -6
19 -13 9 -13 14 -3 20 9 6 11 4 5 -6 -5 -8 -4 -11 1 -6 4 4 9 19 10 33 1 18
-3 23 -14 19 -10 -4 -12 0 -8 11 4 12 2 15 -9 11 -8 -4 -17 -1 -21 5 -4 6 -3
8 4 4 6 -3 13 -2 17 4 9 15 15 51 7 46 -7 -4 -26 13 -31 28 -1 5 3 13 11 17
11 7 11 9 -1 9 -9 0 -10 4 -4 13 11 14 11 27 0 44 -4 6 -3 14 3 18 5 3 10 11
10 16 0 6 -6 7 -12 3 -9 -5 -9 -2 1 9 11 14 11 17 0 17 -12 0 -12 2 0 9 10 7
10 10 1 13 -10 3 -10 9 0 27 7 15 8 21 1 17 -6 -4 -11 -2 -11 3 0 6 4 11 8 11
5 0 9 7 9 15 0 8 -4 12 -9 9 -7 -5 -13 18 -9 39 1 5 -3 6 -9 2 -6 -3 -8 -11
-5 -16 4 -5 1 -9 -5 -9 -7 0 -9 8 -5 20 4 13 2 20 -7 20 -10 0 -9 3 2 10 13 9
13 10 0 11 -10 0 -8 3 5 9 16 7 17 9 3 9 -22 1 -32 17 -17 27 8 5 9 3 4 -6 -5
-9 -4 -11 4 -6 9 6 9 11 -1 24 -10 12 -10 14 0 8 6 -4 12 -2 12 3 0 6 -6 11
-12 11 -9 0 -8 4 2 10 12 8 12 10 1 10 -11 0 -11 3 0 17 12 14 12 16 0 12 -8
-3 -22 2 -31 10 -14 14 -14 17 0 29 13 11 13 11 -2 6 -12 -4 -16 -1 -13 13 2
10 4 18 5 18 1 0 3 17 4 37 1 20 -1 35 -6 32 -4 -3 -8 0 -8 6 0 6 -5 8 -12 4
-7 -5 -9 -2 -5 9 4 12 2 14 -11 10 -15 -6 -15 -5 -3 10 11 14 11 17 0 17 -11
0 -11 2 1 10 13 9 13 10 0 10 -13 0 -13 1 0 10 12 8 12 10 1 10 -11 0 -11 3
-1 15 9 11 9 15 1 15 -7 0 -9 5 -5 13 5 8 2 8 -9 -2 -17 -13 -23 -6 -18 22 0
4 -5 7 -11 7 -9 0 -8 4 2 10 10 6 11 10 3 10 -7 0 -13 5 -13 11 0 5 4 8 8 5 4
-2 8 8 7 23 0 19 -4 27 -13 24 -21 -8 -44 17 -31 33 9 11 8 14 0 14 -7 0 -9 5
-6 10 4 6 11 7 17 4 7 -4 8 -2 4 5 -4 6 -12 9 -17 6 -5 -4 -9 2 -9 12 0 15 -2
16 -10 3 -8 -13 -10 -12 -10 3 0 9 -6 17 -12 17 -10 0 -9 3 1 9 11 7 11 9 0
14 -11 4 -11 6 -1 6 7 1 -1 14 -17 30 -20 19 -26 31 -18 35 8 3 9 5 0 5 -6 1
-9 10 -5 23 3 11 1 19 -4 16 -5 -3 -17 5 -27 18 -10 13 -14 24 -9 24 4 0 8 11
8 24 0 14 -4 22 -8 20 -5 -3 -6 -11 -2 -17 3 -7 0 -5 -8 4 -7 9 -20 14 -28 11
-13 -5 -13 -3 0 13 12 15 12 17 1 10 -11 -6 -13 -3 -9 13 4 12 1 25 -4 29 -7
3 -8 1 -4 -5 4 -7 1 -12 -8 -12 -10 0 -13 6 -9 17 4 10 2 14 -4 10 -5 -3 -10
0 -10 8 0 8 3 12 7 10 4 -2 7 2 7 9 0 8 -8 11 -20 8 -14 -3 -18 -1 -13 6 4 7
1 12 -8 12 -10 0 -13 7 -11 21 4 17 2 19 -10 9 -11 -10 -15 -10 -15 -1 0 7 -4
10 -8 7 -4 -2 -8 6 -8 19 0 16 4 21 14 17 10 -3 8 2 -4 16 -20 24 -30 29 -18
10 5 -7 3 -8 -5 -3 -7 4 -10 16 -8 27 4 16 3 17 -9 7 -11 -9 -14 -7 -14 10 0
12 -4 19 -10 16 -5 -3 -10 -1 -10 5 0 6 -5 8 -12 4 -8 -5 -7 0 2 11 14 17 14
18 -7 6 -19 -10 -22 -9 -17 4 4 10 0 15 -12 15 -16 0 -17 2 -4 10 10 6 11 10
3 10 -7 0 -14 -1 -16 -2 -1 -2 -10 4 -19 12 -11 11 -12 17 -4 22 7 5 3 8 -9 9
l-20 0 20 9 c19 8 19 9 -3 9 -15 1 -29 12 -40 31 -9 16 -23 30 -29 30 -7 0
-13 9 -13 21 0 19 -1 19 -16 5 -8 -9 -18 -16 -22 -16 -3 0 -1 5 6 12 15 15 16
32 2 23 -5 -3 -10 -2 -10 2 0 5 5 14 10 21 7 9 7 9 -2 2 -18 -15 -31 -12 -25
5 4 8 1 17 -5 21 -7 4 -8 3 -4 -4 4 -7 2 -12 -3 -12 -10 0 -15 14 -12 33 0 4
-4 7 -10 7 -5 0 -8 4 -5 8 2 4 -5 9 -16 9 -28 3 -33 10 -18 28 7 8 8 15 2 15
-5 0 -12 -7 -16 -15 -6 -17 -36 -9 -36 10 0 13 -36 31 -53 27 -5 -1 -6 2 -2 8
3 6 11 8 16 5 5 -3 6 1 3 10 -4 9 -13 14 -21 11 -9 -4 -17 1 -20 14 -5 18 -38
37 -56 32 -5 -1 -6 2 -2 8 3 6 11 8 16 5 5 -3 6 1 3 9 -3 9 -10 13 -15 10 -5
-3 -9 2 -9 11 0 10 -5 13 -12 9 -8 -5 -9 -2 -5 9 3 9 3 16 -1 16 -21 -3 -43 2
-38 9 3 5 -2 9 -10 9 -9 0 -13 -6 -9 -16 4 -11 1 -10 -14 3 -11 10 -18 23 -15
27 3 5 -8 17 -25 27 -17 9 -31 23 -31 31 0 11 -3 11 -17 0 -9 -8 -15 -9 -12
-4 3 6 -9 24 -25 40 -16 17 -26 25 -23 19 10 -17 -16 -24 -30 -8 -10 10 -10
14 0 17 7 3 2 6 -11 6 -13 1 -20 5 -17 11 3 6 -1 10 -9 10 -8 0 -18 4 -21 10
-4 6 1 7 12 3 15 -6 16 -5 3 9 -8 9 -17 14 -19 12 -2 -2 -10 1 -18 8 -11 9
-12 7 -7 -8 5 -17 4 -17 -7 1 -17 27 -32 40 -46 41 -28 2 -33 4 -33 15 0 5 6
7 13 3 9 -5 9 -4 0 6 -7 8 -23 15 -35 17 -18 2 -20 1 -8 -7 13 -8 13 -10 -1
-10 -20 0 -42 24 -31 35 4 5 1 5 -5 1 -8 -4 -13 -1 -13 8 0 9 -7 13 -20 11
-17 -3 -18 -1 -10 15 8 15 7 17 -10 13 -13 -3 -20 0 -20 8 0 11 -2 11 -10 -1
-8 -12 -10 -12 -10 -1 0 11 -3 11 -15 1 -12 -10 -14 -8 -10 9 2 12 -1 21 -6
21 -6 0 -8 3 -6 8 3 4 -6 8 -19 8 -13 1 -21 -2 -18 -7 13 -21 -14 -6 -36 20
-19 22 -29 27 -42 20 -17 -9 -23 -1 -19 24 1 5 -3 6 -9 2 -6 -3 -7 -11 -4 -17
5 -7 2 -8 -5 -4 -7 5 -10 15 -7 23 3 8 1 11 -4 8 -6 -3 -10 -1 -10 6 0 7 -3 9
-7 6 -9 -10 -34 14 -26 26 3 5 1 7 -5 3 -6 -3 -13 -2 -17 4 -4 7 -12 7 -25 0
-15 -8 -24 -6 -40 10 -11 11 -25 20 -31 20 -5 0 -7 5 -3 12 5 8 2 9 -9 5 -49
-20 -53 -20 -32 -3 11 10 15 15 8 12 -16 -8 -43 4 -43 18 0 7 -7 13 -15 13 -8
0 -12 -4 -9 -8 2 -4 -4 -7 -14 -6 -19 1 -37 15 -40 31 -1 10 -18 15 -59 19
-12 1 -19 4 -17 6 2 2 -2 11 -9 19 -8 11 -8 14 0 9 6 -4 14 -4 17 1 2 4 -4 9
-15 9 -10 1 -19 -3 -19 -9 0 -6 -7 -5 -17 3 -11 10 -14 10 -9 2 4 -7 2 -13 -3
-13 -6 0 -11 9 -11 21 0 11 -4 17 -10 14 -5 -3 -10 2 -10 11 0 14 -3 15 -12 6
-15 -15 -32 -16 -22 -1 5 8 1 8 -14 0 -26 -14 -42 -14 -22 0 12 9 11 10 -7 6
-16 -4 -23 0 -23 10 0 8 5 11 12 7 7 -4 8 -3 4 4 -5 9 -13 9 -27 2 -15 -9 -21
-7 -25 5 -5 12 -9 13 -20 4 -10 -8 -14 -8 -14 -1 0 7 -8 9 -17 5 -16 -6 -16
-5 -4 10 9 12 10 17 2 17 -7 0 -9 5 -5 13 5 8 2 8 -9 -2 -9 -7 -17 -9 -17 -3
0 5 -10 8 -22 4 -16 -4 -19 -2 -13 9 7 12 6 12 -7 1 -17 -13 -35 -1 -24 16 3
5 0 9 -7 10 -7 1 -24 3 -40 6 -15 2 -25 0 -22 -4 3 -5 0 -12 -6 -16 -7 -4 -9
-3 -5 4 3 6 1 14 -5 18 -6 3 -15 0 -20 -7 -5 -8 -9 -9 -9 -3 0 5 6 16 13 23 7
9 7 11 1 8 -7 -4 -15 0 -18 9 -6 15 -8 15 -27 -2 -11 -10 -20 -14 -19 -9 5 22
-1 27 -15 15 -12 -10 -15 -10 -15 1 0 11 -2 11 -10 -1 -8 -13 -10 -12 -10 3 0
10 -4 16 -9 13 -5 -3 -11 1 -14 9 -4 10 -1 12 11 9 14 -4 13 -3 -2 6 -15 10
-20 9 -27 -1 -7 -12 -9 -11 -9 1 0 9 -3 11 -8 5 -9 -12 -62 -14 -62 -2 0 4 -6
5 -12 1 -9 -5 -9 -2 1 9 12 15 11 17 -8 17 -12 0 -20 4 -17 9 3 5 -2 8 -12 7
-9 0 -20 -8 -24 -16 -5 -12 -7 -12 -7 2 -1 13 -8 16 -31 13 -27 -3 -29 -2 -19
17 8 15 8 19 0 14 -6 -4 -11 -2 -11 5 0 8 -5 7 -17 -2 -13 -11 -17 -11 -20 -1
-3 6 -9 12 -14 12 -6 0 -7 -5 -3 -11 4 -7 -1 -7 -16 1 -15 8 -20 8 -16 1 4 -6
2 -11 -3 -11 -6 0 -11 6 -11 13 0 7 -3 8 -8 2 -12 -17 -35 -17 -29 -1 4 9 1
18 -5 22 -7 4 -8 3 -4 -4 4 -7 2 -12 -3 -12 -6 0 -11 10 -11 21 0 18 -3 19
-15 9 -8 -6 -20 -8 -27 -4 -17 11 -48 13 -42 2 3 -4 0 -8 -5 -8 -6 0 -11 5
-11 10 0 6 -14 8 -32 6 -18 -3 -27 -3 -20 0 6 3 9 11 5 17 -4 7 1 6 10 -2 9
-7 17 -11 17 -7 0 3 -11 13 -25 22 -19 13 -28 14 -39 5 -11 -9 -15 -9 -19 1
-4 10 -7 10 -18 -1 -12 -12 -12 -13 0 -6 10 6 12 4 6 -5 -6 -10 -11 -10 -20 3
-13 18 -30 24 -20 7 3 -6 -1 -7 -10 -3 -13 4 -14 7 -3 14 11 7 10 10 -1 21
-12 11 -13 10 -7 -2 4 -8 0 -6 -8 4 -15 18 -20 15 -17 -9 1 -5 -5 -2 -13 8
-10 14 -15 15 -19 5 -4 -10 -6 -10 -6 1 -1 11 -4 11 -17 0 -13 -10 -17 -10
-24 0 -4 7 -10 9 -13 4 -7 -11 -65 -9 -75 3 -4 4 1 4 11 1 11 -4 17 -1 17 8 0
8 -8 12 -20 10 -11 -2 -20 0 -20 6 0 5 5 9 12 9 6 0 8 3 5 6 -4 4 -13 1 -22
-6 -12 -10 -15 -10 -15 1 0 11 -2 11 -10 -1 -9 -13 -10 -13 -10 0 0 13 -1 13
-10 0 -9 -13 -10 -13 -10 0 0 13 -1 13 -10 0 -9 -13 -10 -13 -10 0 0 13 -1 13
-10 0 -9 -13 -10 -13 -10 0 0 13 -1 13 -10 0 -9 -13 -10 -13 -10 0 0 13 -1 13
-10 0 -8 -13 -10 -13 -10 1 0 9 -7 22 -16 30 -17 14 -56 20 -48 7 3 -4 0 -8
-5 -8 -6 0 -11 5 -11 11 0 8 -6 7 -17 -2 -9 -8 -14 -9 -10 -3 3 6 0 11 -8 11
-8 0 -12 -4 -9 -9 3 -4 0 -8 -5 -8 -6 0 -11 5 -11 10 0 6 -5 10 -11 10 -5 0
-8 -3 -6 -8 3 -4 -10 -7 -29 -8 -24 -1 -31 2 -22 8 9 7 6 8 -10 5 -19 -5 -21
-3 -11 9 6 8 9 17 5 21 -3 3 -6 2 -6 -4 0 -6 -7 -14 -16 -17 -15 -6 -15 -4 -3
11 9 11 10 14 2 9 -7 -4 -13 -3 -13 2 0 5 -7 9 -15 9 -8 0 -12 -4 -9 -9 3 -4
0 -8 -5 -8 -6 0 -11 6 -11 13 0 8 -4 7 -10 -3 -9 -13 -10 -13 -10 0 0 13 -1
13 -10 0 -9 -13 -10 -13 -10 0 0 13 -1 13 -10 0 -5 -8 -10 -10 -10 -4 0 7 -7
15 -16 18 -13 5 -14 4 -6 -7 9 -11 7 -13 -11 -12 -12 2 -21 8 -19 14 1 7 -2
10 -8 6 -6 -3 -8 -11 -5 -16 9 -14 -3 -11 -24 8 -11 9 -17 21 -14 26 3 5 -4 4
-16 -2 -18 -10 -21 -9 -21 6 0 15 -2 16 -10 3 -9 -13 -10 -13 -10 0 0 13 -1
13 -10 0 -8 -12 -10 -12 -10 -1 0 11 -3 11 -15 1 -12 -10 -15 -10 -15 0 0 10
-3 10 -15 0 -12 -10 -15 -10 -15 0 0 10 -3 10 -15 0 -14 -12 -19 -7 -16 13 1
5 -3 6 -9 2 -6 -3 -8 -11 -5 -16 4 -5 1 -9 -4 -9 -6 0 -11 5 -11 11 0 8 -5 8
-15 -1 -8 -7 -15 -8 -15 -3 0 6 -11 9 -26 7 -22 -2 -23 0 -12 14 10 12 10 14
1 8 -8 -4 -13 -2 -13 7 0 7 -7 14 -15 14 -8 0 -12 -4 -9 -9 3 -4 0 -8 -5 -8
-6 0 -11 5 -11 10 0 6 -5 10 -11 10 -5 0 -8 -4 -4 -9 3 -5 1 -13 -5 -16 -6 -4
-9 -1 -8 6 2 6 -7 12 -19 14 -18 1 -20 -1 -11 -12 8 -11 7 -12 -6 -7 -9 3 -16
11 -16 18 0 6 -5 4 -10 -4 -9 -13 -10 -13 -10 0 0 13 -1 13 -10 0 -9 -13 -10
-13 -10 0 0 13 -1 13 -10 0 -9 -13 -10 -13 -10 0 0 13 -1 13 -10 0 -9 -13 -10
-13 -10 0 0 13 -1 13 -10 0 -9 -13 -10 -13 -10 0 0 13 -1 13 -10 0 -9 -13 -10
-13 -10 0 0 13 -1 13 -10 0 -8 -12 -10 -12 -10 -1 0 11 -3 11 -16 0 -13 -10
-17 -10 -25 2 -8 12 -10 12 -19 -1 -8 -13 -11 -13 -22 -1 -11 12 -10 13 2 6 8
-4 2 6 -14 23 -33 35 -37 38 -34 20 4 -17 -25 -16 -40 2 -10 13 -11 13 -6 -3
7 -19 -14 -21 -29 -2 -6 6 -10 5 -14 -3 -4 -10 -8 -10 -21 0 -12 10 -14 10 -8
1 4 -7 3 -13 -3 -13 -5 0 -11 6 -14 13 -3 9 -7 9 -20 -2 -14 -11 -17 -11 -17
0 0 12 -2 12 -9 0 -7 -11 -9 -11 -14 0 -4 9 -8 10 -14 4 -10 -13 -36 -18 -29
-6 3 5 -5 8 -18 7 -18 -1 -22 -4 -14 -14 8 -9 7 -11 -6 -6 -9 3 -16 10 -16 15
0 5 -5 9 -11 9 -5 0 -8 -4 -4 -9 3 -5 1 -13 -5 -16 -6 -4 -10 -3 -9 2 3 20 -2
25 -16 13 -8 -7 -15 -8 -15 -3 0 5 -7 10 -15 10 -8 0 -12 -4 -9 -9 3 -4 0 -8
-5 -8 -6 0 -11 4 -11 8 0 5 -7 9 -15 9 -8 0 -12 -4 -9 -9 3 -4 0 -8 -5 -8 -6
0 -11 5 -11 10 0 7 -6 7 -20 0 -11 -6 -20 -7 -20 -1 0 5 -7 12 -16 15 -13 5
-14 3 -6 -7 8 -10 6 -13 -9 -13 -10 0 -19 3 -19 7 0 3 -11 5 -25 4 -21 -3 -23
-1 -15 15 8 15 6 17 -10 13 -11 -3 -20 0 -20 6 0 6 -5 11 -11 11 -5 0 -7 -4
-4 -10 10 -16 -6 -12 -29 8 -18 15 -19 15 -8 0 12 -15 11 -17 -7 -15 -12 1
-21 5 -21 10 0 5 -7 4 -16 -4 -13 -10 -17 -10 -26 2 -7 11 -11 11 -15 1 -4
-10 -8 -10 -21 0 -12 10 -14 10 -8 1 4 -7 3 -13 -3 -13 -5 0 -12 6 -15 13 -5
9 -7 9 -12 -1 -5 -10 -9 -10 -22 0 -12 10 -14 10 -8 1 4 -7 2 -13 -3 -13 -6 0
-11 5 -11 11 0 8 -5 7 -16 -2 -13 -10 -17 -10 -26 2 -7 11 -11 11 -15 1 -4
-10 -8 -10 -21 0 -12 10 -14 10 -8 1 4 -7 3 -13 -3 -13 -5 0 -12 6 -15 13 -5
9 -7 9 -12 -1 -5 -10 -9 -10 -22 0 -12 10 -14 10 -8 1 4 -7 2 -13 -3 -13 -6 0
-11 6 -11 13 0 8 -4 7 -10 -3 -9 -13 -10 -13 -10 0 0 13 -1 13 -10 0 -9 -13
-10 -13 -10 0 0 13 -1 13 -10 0 -9 -13 -10 -13 -10 0 0 13 -1 13 -10 0 -8 -12
-10 -12 -10 -1 0 11 -3 11 -16 0 -13 -10 -17 -10 -26 2 -7 11 -11 11 -15 1 -4
-10 -8 -10 -21 0 -12 10 -14 10 -8 1 4 -7 3 -13 -3 -13 -5 0 -12 6 -15 13 -5
9 -7 9 -12 -1 -5 -10 -9 -10 -22 0 -12 10 -14 10 -8 1 4 -7 2 -13 -3 -13 -6 0
-11 6 -11 13 0 8 -4 7 -10 -3 -9 -13 -10 -13 -10 0 0 13 -1 13 -10 0 -9 -13
-10 -13 -10 0 0 13 -1 13 -10 0 -9 -13 -10 -13 -10 0 0 13 -1 13 -10 0 -8 -12
-10 -12 -10 -1 0 11 -3 11 -16 0 -13 -10 -17 -10 -26 2 -7 11 -11 11 -15 1 -4
-10 -8 -10 -21 0 -12 10 -14 10 -8 1 4 -7 3 -13 -3 -13 -5 0 -12 6 -15 13 -5
9 -7 9 -12 -1 -5 -10 -9 -10 -22 0 -12 10 -14 10 -8 1 4 -7 2 -13 -3 -13 -6 0
-11 5 -11 11 0 8 -5 7 -16 -2 -13 -10 -17 -10 -26 2 -7 11 -11 11 -15 1 -4
-10 -8 -10 -21 0 -12 10 -14 10 -8 1 4 -7 3 -13 -3 -13 -5 0 -12 6 -15 13 -5
9 -7 9 -12 -1 -5 -10 -9 -10 -22 0 -12 10 -14 10 -8 1 4 -7 2 -13 -3 -13 -6 0
-11 6 -11 13 0 8 -4 7 -10 -3 -9 -13 -10 -13 -10 0 0 13 -1 13 -10 0 -9 -13
-10 -13 -10 0 0 13 -1 13 -10 0 -9 -13 -10 -13 -10 0 0 13 -1 13 -10 0 -8 -12
-10 -12 -10 -1 0 11 -3 11 -16 0 -13 -10 -17 -10 -26 2 -7 11 -11 11 -15 1 -4
-10 -8 -10 -21 0 -12 10 -14 10 -8 1 4 -7 3 -13 -3 -13 -5 0 -12 6 -15 13 -5
9 -7 9 -12 -1 -5 -10 -9 -10 -22 0 -12 10 -14 10 -8 1 4 -7 2 -13 -3 -13 -6 0
-11 6 -11 13 0 8 -4 7 -10 -3 -9 -13 -10 -13 -10 0 0 13 -1 13 -10 0 -9 -13
-10 -13 -10 0 0 13 -1 13 -10 0 -9 -13 -10 -13 -10 0 0 13 -1 13 -10 0 -6 -10
-10 -11 -10 -2 0 6 -5 12 -11 12 -5 0 -8 -4 -4 -9 3 -5 1 -13 -5 -16 -6 -4 -9
-1 -8 5 2 7 -5 14 -15 15 -14 3 -17 -1 -12 -13 4 -12 -1 -10 -18 6 -16 15 -27
20 -32 13z m-28 -48 c-14 -14 -19 -15 -29 -4 -11 10 -10 11 3 6 10 -4 20 -2
24 4 3 6 9 11 13 11 3 0 -1 -8 -11 -17z m2753 -124 c0 -6 -4 -7 -10 -4 -5 3
-10 11 -10 16 0 6 5 7 10 4 6 -3 10 -11 10 -16z m-5016 -208 c3 -4 -4 -7 -14
-6 -27 2 -33 10 -10 12 11 1 22 -2 24 -6z m7454 -556 c-3 -3 -13 7 -23 22
l-17 28 23 -22 c12 -12 20 -25 17 -28z m457 -255 c3 -5 1 -10 -4 -10 -6 0 -11
5 -11 10 0 6 2 10 4 10 3 0 8 -4 11 -10z m-9635 -14 c0 -3 -4 -8 -10 -11 -5
-3 -10 -1 -10 4 0 6 5 11 10 11 6 0 10 -2 10 -4z m9905 -175 c3 -5 2 -12 -3
-15 -5 -3 -9 1 -9 9 0 17 3 19 12 6z m-10246 -65 c11 -14 6 -15 -27 -7 -4 1 8
21 12 21 2 0 9 -6 15 -14z m10579 -231 c-3 -3 -9 2 -12 12 -6 14 -5 15 5 6 7
-7 10 -15 7 -18z m517 -645 c3 -6 -1 -7 -9 -4 -18 7 -21 14 -7 14 6 0 13 -4
16 -10z m331 -1157 c-10 -11 -19 -7 -22 10 -2 15 0 16 12 6 8 -6 12 -14 10
-16z m-136 -1147 c0 -2 -8 -10 -17 -17 -16 -13 -17 -12 -4 4 13 16 21 21 21
13z m-485 -736 c-3 -5 -12 -10 -18 -10 -7 0 -6 4 3 10 19 12 23 12 15 0z
m-10808 -464 c2 -19 1 -19 -8 -3 -6 9 -14 15 -19 12 -5 -3 -11 -2 -14 3 -2 4
5 8 18 8 15 0 22 -6 23 -20z m8218 -984 c-3 -3 -11 0 -18 7 -9 10 -8 11 6 5
10 -3 15 -9 12 -12z m-6160 -21 c-6 -5 -25 10 -25 20 0 5 6 4 14 -3 8 -7 12
-15 11 -17z m5588 -114 c-5 -8 -8 -7 -11 1 -2 7 -9 9 -14 6 -7 -4 -8 -2 -4 4
4 6 13 9 21 6 8 -4 12 -11 8 -17z m-2426 -254 c0 -9 -4 -10 -10 -4 -7 7 -15 7
-24 0 -13 -11 -19 2 -7 14 11 11 41 3 41 -10z"/>
<path d="M3593 9853 c4 -3 1 -13 -6 -22 -11 -14 -10 -14 5 -2 16 12 16 31 1
31 -4 0 -3 -3 0 -7z"/>
<path d="M10805 9381 c-3 -5 -2 -12 3 -15 5 -3 9 1 9 9 0 17 -3 19 -12 6z"/>
<path d="M1470 8779 c0 -5 5 -7 10 -4 6 3 10 8 10 11 0 2 -4 4 -10 4 -5 0 -10
-5 -10 -11z"/>
<path d="M1196 8573 c-6 -14 -5 -15 5 -6 7 7 10 15 7 18 -3 3 -9 -2 -12 -12z"/>
<path d="M12205 8381 c-3 -5 -2 -12 3 -15 5 -3 9 1 9 9 0 17 -3 19 -12 6z"/>
<path d="M675 8060 c-3 -5 -1 -10 4 -10 6 0 11 5 11 10 0 6 -2 10 -4 10 -3 0
-8 -4 -11 -10z"/>
<path d="M506 7753 c-6 -14 -5 -15 5 -6 7 7 10 15 7 18 -3 3 -9 -2 -12 -12z"/>
<path d="M425 7611 c-3 -5 -2 -12 3 -15 5 -3 9 1 9 9 0 17 -3 19 -12 6z"/>
<path d="M12815 7240 c3 -5 8 -10 11 -10 2 0 4 5 4 10 0 6 -5 10 -11 10 -5 0
-7 -4 -4 -10z"/>
<path d="M275 7220 c3 -5 8 -10 11 -10 2 0 4 5 4 10 0 6 -5 10 -11 10 -5 0 -7
-4 -4 -10z"/>
<path d="M12885 6231 c-3 -5 0 -13 6 -17 7 -4 9 -3 5 4 -3 5 0 13 6 15 9 4 10
6 1 6 -6 1 -14 -3 -18 -8z"/>
<path d="M12776 5627 c3 -10 9 -15 12 -12 3 3 0 11 -7 18 -10 9 -11 8 -5 -6z"/>
<path d="M12430 5019 c0 -5 5 -7 10 -4 6 3 10 8 10 11 0 2 -4 4 -10 4 -5 0
-10 -5 -10 -11z"/>
<path d="M1122 4666 c7 -8 15 -12 17 -11 5 6 -10 25 -20 25 -5 0 -4 -6 3 -14z"/>
<path d="M11920 4500 c-9 -6 -10 -10 -3 -10 6 0 15 5 18 10 8 12 4 12 -15 0z"/>
<path d="M11790 4395 c-7 -9 -8 -15 -2 -15 5 0 12 7 16 15 3 8 4 15 2 15 -2 0
-9 -7 -16 -15z"/>
<path d="M1780 4116 c0 -2 7 -9 15 -16 9 -7 15 -8 15 -2 0 5 -7 12 -15 16 -8
3 -15 4 -15 2z"/>
<path d="M1950 3996 c0 -2 7 -7 16 -10 8 -3 12 -2 9 4 -6 10 -25 14 -25 6z"/>
<path d="M9146 3248 c3 -5 10 -6 15 -3 13 9 11 12 -6 12 -8 0 -12 -4 -9 -9z"/>
</g>
</svg>
